<?xml version="1.0" encoding="UTF-8" standalone="no"?>
<!-- Created with Inkscape (http://www.inkscape.org/) -->

<svg
   width="30.48mm"
   height="128.5mm"
   viewBox="0 0 30.48 128.5"
   version="1.1"
   id="svg5"
   sodipodi:docname="Rectifier.svg"
   inkscape:version="1.1 (c4e8f9e, 2021-05-24)"
   xmlns:inkscape="http://www.inkscape.org/namespaces/inkscape"
   xmlns:sodipodi="http://sodipodi.sourceforge.net/DTD/sodipodi-0.dtd"
   xmlns="http://www.w3.org/2000/svg"
   xmlns:svg="http://www.w3.org/2000/svg">
  <sodipodi:namedview
     id="namedview7"
     pagecolor="#ffffff"
     bordercolor="#666666"
     borderopacity="1.0"
     inkscape:pageshadow="2"
     inkscape:pageopacity="0"
     inkscape:pagecheckerboard="0"
     inkscape:document-units="mm"
     showgrid="false"
     inkscape:zoom="1.2996305"
     inkscape:cx="62.710132"
     inkscape:cy="378.18441"
     inkscape:window-width="1440"
     inkscape:window-height="847"
     inkscape:window-x="0"
     inkscape:window-y="25"
     inkscape:window-maximized="0"
     inkscape:current-layer="layer2" />
  <defs
     id="defs2">
    <filter
       inkscape:collect="always"
       style="color-interpolation-filters:sRGB"
       id="filter854"
       x="-0.031005769"
       y="-inf"
       width="1.0620115"
       height="inf">
      <feGaussianBlur
         inkscape:collect="always"
         stdDeviation="0.14163066"
         id="feGaussianBlur856" />
    </filter>
  </defs>
  <g
     inkscape:label="Layer 1"
     inkscape:groupmode="layer"
     id="layer1">
    <rect
       style="fill:#cdbba7;fill-opacity:1;stroke-width:0.2"
       id="rect888"
       width="30.48"
       height="128.5"
       x="0"
       y="0" />
    <g
       aria-label="-HALF"
       transform="scale(1,-1)"
       id="text8117-5-4"
       style="font-size:2.82222px;line-height:1.25;font-family:Montserrat;-inkscape-font-specification:'Montserrat, @wght=500';font-variation-settings:'wght' 500;fill:#4a4e4d;stroke-width:0.264583">
      <path
         d="m 17.82541,-94.657577 v -0.234245 h 0.759177 v 0.234245 z"
         id="path953" />
      <path
         d="m 20.458012,-95.975554 h 0.282222 V -94 H 20.458012 Z M 19.323479,-94 h -0.282222 v -1.975554 h 0.282222 z m 1.159933,-0.880533 h -1.188155 v -0.245533 h 1.188155 z"
         id="path955" />
      <path
         d="m 21.035156,-94 0.894644,-1.975554 h 0.2794 L 23.106665,-94 h -0.296333 l -0.798688,-1.81751 h 0.112889 L 21.325845,-94 Z m 0.381,-0.493889 0.0762,-0.225777 h 1.111954 l 0.08184,0.225777 z"
         id="path957" />
      <path
         d="m 23.401367,-94 v -1.975554 h 0.282222 v 1.730021 H 24.75321 V -94 Z"
         id="path959" />
      <path
         d="m 25.33106,-95.041399 h 1.018821 v 0.242711 H 25.33106 Z M 25.359282,-94 H 25.07706 v -1.975554 h 1.394177 v 0.245533 h -1.111955 z"
         id="path961" />
    </g>
    <g
       aria-label="+HALF"
       transform="scale(1,-1)"
       id="text8117-7-4"
       style="font-size:2.82222px;line-height:1.25;font-family:Montserrat;-inkscape-font-specification:'Montserrat, @wght=500';font-variation-settings:'wght' 500;fill:#4a4e4d;stroke-width:0.264583">
      <path
         d="m 18.08307,-74.369711 v -1.236132 h 0.237066 v 1.236132 z m -0.513644,-0.505177 v -0.222956 h 1.264354 v 0.222956 z"
         id="path920" />
      <path
         d="m 20.736045,-75.975554 h 0.282222 V -74 H 20.736045 Z M 19.601512,-74 H 19.31929 v -1.975554 h 0.282222 z m 1.159933,-0.880533 H 19.57329 v -0.245533 h 1.188155 z"
         id="path922" />
      <path
         d="m 21.313189,-74 0.894643,-1.975554 h 0.2794 L 23.384698,-74 h -0.296333 l -0.798688,-1.81751 h 0.112889 L 21.603877,-74 Z m 0.380999,-0.493889 0.0762,-0.225777 h 1.111955 l 0.08184,0.225777 z"
         id="path924" />
      <path
         d="m 23.6794,-74 v -1.975554 h 0.282222 v 1.730021 h 1.069621 V -74 Z"
         id="path926" />
      <path
         d="m 25.609093,-75.041399 h 1.018821 v 0.242711 H 25.609093 Z M 25.637315,-74 h -0.282222 v -1.975554 h 1.394177 v 0.245533 h -1.111955 z"
         id="path928" />
    </g>
    <g
       aria-label="FULL"
       transform="scale(1,-1)"
       id="text8117-29-4"
       style="font-size:2.82222px;line-height:1.25;font-family:Montserrat;-inkscape-font-specification:'Montserrat, @wght=500';font-variation-settings:'wght' 500;fill:#4a4e4d;stroke-width:0.264583">
      <path
         d="m 18.844694,-55.063978 h 1.018821 v 0.242711 h -1.018821 z m 0.02822,1.041399 h -0.282222 v -1.975554 h 1.394177 v 0.245533 h -1.111955 z"
         id="path911" />
      <path
         d="m 21.200586,-54.000001 q -0.389466,0 -0.612421,-0.222956 -0.222956,-0.222955 -0.222956,-0.651933 v -1.123243 h 0.282222 v 1.111954 q 0,0.3302 0.143933,0.4826 0.146756,0.1524 0.412045,0.1524 0.268111,0 0.412044,-0.1524 0.146755,-0.1524 0.146755,-0.4826 v -1.111954 h 0.273756 v 1.123243 q 0,0.428978 -0.222956,0.651933 -0.220133,0.222956 -0.612422,0.222956 z"
         id="path913" />
      <path
         d="m 22.614563,-54.022579 v -1.975554 h 0.282222 v 1.730021 h 1.069621 v 0.245533 z"
         id="path915" />
      <path
         d="m 24.290256,-54.022579 v -1.975554 h 0.282222 v 1.730021 h 1.069621 v 0.245533 z"
         id="path917" />
    </g>
    <g
       aria-label="-HALF"
       id="text8117-5"
       style="font-size:2.82222px;line-height:1.25;font-family:Montserrat;-inkscape-font-specification:'Montserrat, @wght=500';font-variation-settings:'wght' 500;fill:#4a4e4d;stroke-width:0.264583">
      <path
         d="m 4.0695281,95.317978 v -0.234244 h 0.7591773 v 0.234244 z"
         id="path942" />
      <path
         d="m 6.7021304,94.000001 h 0.282222 v 1.975554 h -0.282222 z m -1.1345325,1.975554 h -0.282222 v -1.975554 h 0.282222 z M 6.7275303,95.095023 H 5.5393757 V 94.84949 h 1.1881546 z"
         id="path944" />
      <path
         d="M 7.2792744,95.975555 8.1739182,94.000001 H 8.453318 l 0.8974659,1.975554 H 9.0544508 L 8.2557626,94.158046 h 0.1128888 l -0.7986883,1.817509 z m 0.3809997,-0.493888 0.0762,-0.225778 h 1.1119547 l 0.081844,0.225778 z"
         id="path946" />
      <path
         d="m 9.6454854,95.975555 v -1.975554 h 0.282222 v 1.730021 h 1.0696216 v 0.245533 z"
         id="path948" />
      <path
         d="M 11.575178,94.934156 H 12.594 v 0.242711 h -1.018822 z m 0.02822,1.041399 h -0.282222 v -1.975554 h 1.394177 v 0.245534 H 11.6034 Z"
         id="path950" />
    </g>
    <g
       aria-label="+HALF"
       id="text8117-7"
       style="font-size:2.82222px;line-height:1.25;font-family:Montserrat;-inkscape-font-specification:'Montserrat, @wght=500';font-variation-settings:'wght' 500;fill:#4a4e4d;stroke-width:0.264583">
      <path
         d="m 4.3271878,75.605845 v -1.236133 h 0.2370665 v 1.236133 z M 3.8135437,75.100667 v -0.222955 h 1.2643546 v 0.222955 z"
         id="path931" />
      <path
         d="m 6.9801629,74.000001 h 0.282222 v 1.975554 h -0.282222 z m -1.1345325,1.975554 h -0.282222 v -1.975554 h 0.282222 z M 7.0055629,75.095023 H 5.8174082 V 74.84949 h 1.1881547 z"
         id="path933" />
      <path
         d="m 7.5573069,75.975555 0.8946438,-1.975554 h 0.2793998 l 0.897466,1.975554 H 9.3324834 L 8.5337951,74.158046 h 0.1128888 l -0.7986883,1.817509 z m 0.3809998,-0.493888 0.0762,-0.225778 h 1.1119547 l 0.081844,0.225778 z"
         id="path935" />
      <path
         d="m 9.923518,75.975555 v -1.975554 h 0.282222 v 1.730021 h 1.069621 v 0.245533 z"
         id="path937" />
      <path
         d="m 11.853211,74.934156 h 1.018821 v 0.242711 h -1.018821 z m 0.02822,1.041399 h -0.282222 v -1.975554 h 1.394177 v 0.245534 h -1.111955 z"
         id="path939" />
    </g>
    <g
       aria-label="FULL"
       id="text8117-29"
       style="font-size:2.82222px;line-height:1.25;font-family:Montserrat;-inkscape-font-specification:'Montserrat, @wght=500';font-variation-settings:'wght' 500;fill:#4a4e4d;stroke-width:0.264583">
      <path
         d="m 5.0903558,54.934156 h 1.0188214 v 0.242711 H 5.0903558 Z m 0.028222,1.041399 H 4.836356 v -1.975554 h 1.3941767 v 0.245534 H 5.118578 Z"
         id="path902" />
      <path
         d="m 7.4462481,55.998133 q -0.3894663,0 -0.6124217,-0.222955 Q 6.610871,55.552222 6.610871,55.123245 v -1.123244 h 0.282222 v 1.111955 q 0,0.3302 0.1439332,0.4826 0.1467555,0.1524 0.4120442,0.1524 0.2681109,0 0.4120441,-0.1524 0.1467554,-0.1524 0.1467554,-0.4826 v -1.111955 h 0.2737554 v 1.123244 q 0,0.428977 -0.2229554,0.651933 -0.2201332,0.222955 -0.6124218,0.222955 z"
         id="path904" />
      <path
         d="m 8.8602245,55.975555 v -1.975554 h 0.282222 v 1.730021 h 1.0696215 v 0.245533 z"
         id="path906" />
      <path
         d="m 10.535918,55.975555 v -1.975554 h 0.282222 v 1.730021 h 1.069621 v 0.245533 z"
         id="path908" />
    </g>
    <g
       aria-label="CV AXIS"
       id="text8117-8"
       style="font-size:2.82222px;line-height:1.25;font-family:Montserrat;-inkscape-font-specification:'Montserrat, @wght=500';font-variation-settings:'wght' 500;fill:#4a4e4d;stroke-width:0.264583">
      <path
         d="m 10.903571,36.015067 q -0.225778,0 -0.417689,-0.07338 -0.189089,-0.0762 -0.3302,-0.211667 -0.138288,-0.138288 -0.2173106,-0.321733 -0.079022,-0.183444 -0.079022,-0.403577 0,-0.220133 0.079022,-0.403578 0.079023,-0.183444 0.2201336,-0.318911 0.141111,-0.138288 0.330199,-0.211666 0.191911,-0.0762 0.417689,-0.0762 0.2286,0 0.420511,0.07902 0.194733,0.0762 0.330199,0.2286 l -0.183444,0.1778 q -0.112889,-0.118533 -0.254,-0.174978 -0.141111,-0.05927 -0.301977,-0.05927 -0.166511,0 -0.310444,0.05644 -0.141111,0.05644 -0.245534,0.158044 -0.104422,0.1016 -0.163688,0.242711 -0.05645,0.138289 -0.05645,0.301978 0,0.163689 0.05645,0.3048 0.05927,0.138288 0.163688,0.239888 0.104423,0.1016 0.245534,0.158045 0.143933,0.05644 0.310444,0.05644 0.160866,0 0.301977,-0.05644 0.141111,-0.05927 0.254,-0.180622 l 0.183444,0.177799 q -0.135466,0.1524 -0.330199,0.231422 -0.191911,0.07902 -0.423333,0.07902 z"
         id="path889" />
      <path
         d="m 12.613263,35.992489 -0.869244,-1.975554 h 0.3048 l 0.798688,1.823154 h -0.174978 l 0.804333,-1.823154 h 0.282222 l -0.866421,1.975554 z"
         id="path891" />
      <path
         d="m 14.51663,35.992489 0.894644,-1.975554 h 0.279399 l 0.897466,1.975554 h -0.296333 l -0.798688,-1.81751 h 0.112889 l -0.798688,1.81751 z m 0.381,-0.493889 0.0762,-0.225777 h 1.111954 l 0.08185,0.225777 z"
         id="path893" />
      <path
         d="m 16.52949,35.992489 0.821266,-1.120422 v 0.217311 l -0.77611,-1.072443 h 0.321733 l 0.615244,0.843844 -0.127,0.0028 0.612421,-0.846666 h 0.307622 l -0.770466,1.05551 v -0.2032 l 0.821266,1.123244 h -0.324555 l -0.654755,-0.900288 h 0.124178 l -0.646289,0.900288 z"
         id="path895" />
      <path
         d="m 18.624679,35.992489 v -1.975554 h 0.282222 v 1.975554 z"
         id="path897" />
      <path
         d="m 20.076845,36.015067 q -0.225778,0 -0.4318,-0.06773 -0.206022,-0.07055 -0.324555,-0.180622 l 0.104422,-0.220133 q 0.112889,0.09878 0.287866,0.163689 0.174978,0.06491 0.364067,0.06491 0.172155,0 0.279399,-0.03951 0.107245,-0.03951 0.158045,-0.107245 0.0508,-0.07055 0.0508,-0.158044 0,-0.1016 -0.06773,-0.163689 -0.06491,-0.06209 -0.172155,-0.09878 -0.104422,-0.03951 -0.231422,-0.06773 -0.127,-0.02822 -0.256822,-0.06491 -0.127,-0.03951 -0.234244,-0.09878 -0.104422,-0.05927 -0.169334,-0.158045 -0.06491,-0.1016 -0.06491,-0.259644 0,-0.1524 0.07902,-0.2794 0.08184,-0.129822 0.248355,-0.206022 0.169333,-0.07902 0.428977,-0.07902 0.172156,0 0.341489,0.04516 0.169333,0.04516 0.293511,0.129822 l -0.09313,0.225777 q -0.127,-0.08467 -0.268111,-0.121355 -0.141111,-0.03951 -0.273756,-0.03951 -0.166511,0 -0.273755,0.04233 -0.107244,0.04233 -0.158044,0.112889 -0.04798,0.07055 -0.04798,0.158044 0,0.104422 0.06491,0.166511 0.06773,0.06209 0.172155,0.09878 0.107245,0.03669 0.234245,0.06773 0.127,0.02822 0.254,0.06491 0.129822,0.03669 0.234244,0.09596 0.107244,0.05927 0.172155,0.158044 0.06491,0.09878 0.06491,0.254 0,0.149577 -0.08184,0.2794 -0.08184,0.127 -0.254,0.206022 -0.169333,0.0762 -0.428977,0.0762 z"
         id="path899" />
    </g>
    <g
       aria-label="AXIS"
       id="text8117-2"
       style="font-size:2.82222px;line-height:1.25;font-family:Montserrat;-inkscape-font-specification:'Montserrat, @wght=500';font-variation-settings:'wght' 500;fill:#4a4e4d;stroke-width:0.264583">
      <path
         d="m 19.026,15.992487 0.894643,-1.975554 h 0.2794 l 0.897466,1.975554 h -0.296333 l -0.798688,-1.81751 h 0.112889 l -0.798689,1.81751 z m 0.380999,-0.493889 0.0762,-0.225777 h 1.111955 l 0.08184,0.225777 z"
         id="path880" />
      <path
         d="m 21.03886,15.992487 0.821266,-1.120421 v 0.217311 l -0.77611,-1.072444 h 0.321733 l 0.615244,0.843844 -0.127,0.0028 0.612421,-0.846666 h 0.307622 l -0.770466,1.05551 v -0.2032 l 0.821266,1.123244 h -0.324555 l -0.654755,-0.900288 h 0.124178 l -0.646289,0.900288 z"
         id="path882" />
      <path
         d="m 23.13405,15.992487 v -1.975554 h 0.282222 v 1.975554 z"
         id="path884" />
      <path
         d="m 24.586215,16.015065 q -0.225778,0 -0.4318,-0.06773 -0.206022,-0.07056 -0.324555,-0.180622 l 0.104422,-0.220133 q 0.112888,0.09878 0.287866,0.163689 0.174978,0.06491 0.364067,0.06491 0.172155,0 0.279399,-0.03951 0.107245,-0.03951 0.158045,-0.107244 0.0508,-0.07056 0.0508,-0.158045 0,-0.1016 -0.06773,-0.163689 -0.06491,-0.06209 -0.172155,-0.09878 -0.104422,-0.03951 -0.231422,-0.06773 -0.127,-0.02822 -0.256822,-0.06491 -0.127,-0.03951 -0.234244,-0.09878 -0.104423,-0.05927 -0.169334,-0.158045 -0.06491,-0.1016 -0.06491,-0.259644 0,-0.1524 0.07902,-0.2794 0.08184,-0.129822 0.248356,-0.206022 0.169333,-0.07902 0.428977,-0.07902 0.172156,0 0.341489,0.04516 0.169333,0.04516 0.293511,0.129822 l -0.09313,0.225777 q -0.127,-0.08467 -0.268111,-0.121355 -0.141111,-0.03951 -0.273756,-0.03951 -0.166511,0 -0.273755,0.04233 -0.107244,0.04233 -0.158044,0.112889 -0.04798,0.07055 -0.04798,0.158044 0,0.104422 0.06491,0.166511 0.06773,0.06209 0.172155,0.09878 0.107245,0.03669 0.234245,0.06773 0.127,0.02822 0.253999,0.06491 0.129823,0.03669 0.234245,0.09596 0.107244,0.05927 0.172155,0.158044 0.06491,0.09878 0.06491,0.254 0,0.149578 -0.08184,0.2794 -0.08185,0.127 -0.254,0.206022 -0.169333,0.0762 -0.428977,0.0762 z"
         id="path886" />
    </g>
    <g
       aria-label="RECTIFIER"
       id="text1373"
       style="font-size:4.93889px;line-height:1.25;font-family:Montserrat;-inkscape-font-specification:'Montserrat, @wght=800';font-variation-settings:'wght' 800;fill:#4a4e4d;stroke-width:0.264583">
      <path
         d="M 1.8594672,10.526367 V 7.0691442 H 3.439912 q 0.4741335,0 0.8149169,0.1531056 0.3457223,0.1531056 0.5334001,0.4445001 0.1876778,0.2864556 0.1876778,0.6815668 0,0.3901723 -0.1876778,0.6766279 Q 4.6005512,9.3064614 4.2548289,9.459567 3.9140455,9.6077337 3.439912,9.6077337 H 2.4027451 L 2.8373675,9.1978058 v 1.3285612 z m 2.1385394,0 L 3.1386398,9.2669502 H 4.1807455 L 5.0450513,10.526367 Z M 2.8373675,9.3015225 2.4027451,8.8520835 h 0.9779003 q 0.3062111,0 0.4543778,-0.13335 0.1531056,-0.1333501 0.1531056,-0.3704168 0,-0.2420056 -0.1531056,-0.3753556 Q 3.6868565,7.839611 3.3806454,7.839611 H 2.4027451 L 2.8373675,7.390172 Z"
         id="path856" />
      <path
         d="M 6.4142815,8.4075834 H 8.0194207 V 9.1385391 H 6.4142815 Z m 0.069144,1.3631336 h 1.8076338 v 0.75565 H 5.5154035 V 7.0691442 H 8.2268541 V 7.8247944 H 6.4834259 Z"
         id="path858" />
      <path
         d="m 10.557393,10.595512 q -0.409928,0 -0.7605895,-0.128411 Q 9.4510812,10.33375 9.1942589,10.091745 8.9423755,9.8497393 8.7991477,9.5237725 8.6559199,9.1928669 8.6559199,8.7977557 q 0,-0.3951112 0.1432278,-0.7210779 Q 8.9423755,7.7457721 9.1942589,7.5037665 9.4510812,7.2617609 9.7968035,7.1333498 10.147465,6.9999997 10.557393,6.9999997 q 0.479072,0 0.854428,0.1679223 0.380294,0.1679223 0.632177,0.4840112 l -0.6223,0.5630335 Q 11.253776,8.0174111 11.051282,7.9136944 10.853726,7.8099777 10.606781,7.8099777 q -0.212372,0 -0.390172,0.069145 -0.1778,0.069144 -0.306211,0.2024944 -0.1234723,0.1284112 -0.1975556,0.3111501 -0.069145,0.1827389 -0.069145,0.404989 0,0.22225 0.069145,0.404989 0.074083,0.1827389 0.1975556,0.3160889 0.128411,0.1284112 0.306211,0.1975556 0.1778,0.069145 0.390172,0.069145 0.246945,0 0.444501,-0.1037167 0.202494,-0.1037167 0.370416,-0.3012723 l 0.6223,0.5630335 q -0.251883,0.3111498 -0.632177,0.4840108 -0.375356,0.167923 -0.854428,0.167923 z"
         id="path860" />
      <path
         d="M 13.186966,10.526367 V 7.8445499 H 12.125105 V 7.0691442 h 3.096684 v 0.7754057 h -1.056923 v 2.6818171 z"
         id="path862" />
      <path
         d="M 15.586109,10.526367 V 7.0691442 h 0.9779 v 3.4572228 z"
         id="path864" />
      <path
         d="m 18.173315,8.5853834 h 1.595262 v 0.7556502 h -1.595262 z m 0.06915,1.9409836 H 17.264559 V 7.0691442 h 2.711451 v 0.7556502 h -1.73355 z"
         id="path866" />
      <path
         d="M 20.438182,10.526367 V 7.0691442 h 0.9779 v 3.4572228 z"
         id="path868" />
      <path
         d="m 23.015511,8.4075834 h 1.605139 v 0.7309557 h -1.605139 z m 0.06914,1.3631336 h 1.807633 v 0.75565 H 22.116633 V 7.0691442 h 2.711451 v 0.7556502 h -1.743428 z"
         id="path870" />
      <path
         d="M 25.434951,10.526367 V 7.0691442 h 1.580444 q 0.474134,0 0.814917,0.1531056 0.345723,0.1531056 0.5334,0.4445001 0.187678,0.2864556 0.187678,0.6815668 0,0.3901723 -0.187678,0.6766279 -0.187677,0.2815168 -0.5334,0.4346224 -0.340783,0.1481667 -0.814917,0.1481667 h -1.037167 l 0.434623,-0.4099279 v 1.3285612 z m 2.138539,0 -0.859367,-1.2594168 h 1.042106 l 0.864306,1.2594168 z M 26.412851,9.3015225 25.978228,8.8520835 h 0.977901 q 0.306211,0 0.454378,-0.13335 0.153105,-0.1333501 0.153105,-0.3704168 0,-0.2420056 -0.153105,-0.3753556 Q 27.26234,7.839611 26.956129,7.839611 h -0.977901 l 0.434623,-0.449439 z"
         id="path872" />
    </g>
    <g
       aria-label="IN"
       id="text8117"
       style="font-size:2.82222px;line-height:1.25;font-family:Montserrat;-inkscape-font-specification:'Montserrat, @wght=500';font-variation-settings:'wght' 500;fill:#4a4e4d;stroke-width:0.264583">
      <path
         d="M 7.0839665,15.975554 V 14 h 0.282222 v 1.975554 z"
         id="path875" />
      <path
         d="M 7.9603982,15.975554 V 14 h 0.231422 l 1.3066879,1.622777 H 9.3771527 V 14 h 0.282222 v 1.975554 H 9.4279526 L 8.1212647,14.352778 h 0.1213555 v 1.622776 z"
         id="path877" />
    </g>
  </g>
  <g
     inkscape:groupmode="layer"
     id="layer2"
     inkscape:label="components"
     style="display:inline;filter:url(#filter854)">
    <circle
       style="font-variation-settings:'wght' 700;fill:#00ff00;fill-opacity:1;stroke-width:0.2"
       id="path3597"
       cx="8.3620586"
       cy="21"
       r="4"
       inkscape:label="SIGNAL" />
    <circle
       style="font-variation-settings:'wght' 700;fill:#0000ff;fill-opacity:1;stroke-width:0.2"
       id="path3597-5"
       cx="8.3620586"
       cy="61"
       r="4"
       inkscape:label="FWR" />
    <circle
       style="font-variation-settings:'wght' 700;fill:#0000ff;fill-opacity:1;stroke-width:0.2"
       id="path3597-06"
       cx="22.117941"
       cy="61"
       r="4"
       inkscape:label="FWRI" />
    <circle
       style="font-variation-settings:'wght' 700;fill:#0000ff;fill-opacity:1;stroke-width:0.2"
       id="path3597-5-7"
       cx="8.3620586"
       cy="81"
       r="4"
       inkscape:label="PHR" />
    <circle
       style="font-variation-settings:'wght' 700;fill:#0000ff;fill-opacity:1;stroke-width:0.2"
       id="path3597-06-8"
       cx="22.117941"
       cy="81"
       r="4"
       inkscape:label="PHRI" />
    <circle
       style="font-variation-settings:'wght' 700;fill:#0000ff;fill-opacity:1;stroke-width:0.2"
       id="path3597-5-7-1"
       cx="8.3620586"
       cy="101"
       r="4"
       inkscape:label="NHR" />
    <circle
       style="font-variation-settings:'wght' 700;fill:#0000ff;fill-opacity:1;stroke-width:0.2"
       id="path3597-06-8-1"
       cx="22.117941"
       cy="101"
       r="4"
       inkscape:label="NHRI" />
    <circle
       style="font-variation-settings:'wght' 700;fill:#ff0000;fill-opacity:1;stroke-width:0.2"
       id="path3597-1"
       cx="22.117941"
       cy="21"
       r="4"
       inkscape:label="MANUAL" />
    <path
       style="fill:none;stroke:#8b645a;stroke-width:1.402;stroke-linecap:round;stroke-linejoin:miter;stroke-miterlimit:4;stroke-dasharray:none;stroke-opacity:1"
       d="m 20.721457,41 c -24.6665579,0 0,0 0,0 z"
       id="path14055" />
    <circle
       style="font-variation-settings:'wght' 700;fill:#00ff00;fill-opacity:1;stroke-width:0.2"
       id="path3597-0"
       cx="8.3620005"
       cy="41"
       r="4"
       inkscape:label="CV" />
    <circle
       style="font-variation-settings:'wght' 700;fill:#ff0000;fill-opacity:1;stroke-width:0.2"
       id="path3597-1-6"
       cx="22.118"
       cy="41"
       r="4"
       inkscape:label="CV" />
  </g>
</svg>
